
<svg width="161px" height="145px" viewBox="0 0 161 145" version="1.1" xmlns="http://www.w3.org/2000/svg" xmlns:xlink="http://www.w3.org/1999/xlink">
    <!-- Generator: Sketch 50.2 (55047) - http://www.bohemiancoding.com/sketch -->
    <desc>Created with Sketch.</desc>
    <defs></defs>
    <g id="Signup" stroke="none" stroke-width="1" fill="none" fill-rule="evenodd">
        <g id="Desktop-HD" transform="translate(-258.000000, -654.000000)" fill="#028489" fill-rule="nonzero">
            <g id="logo" transform="translate(258.000000, 654.000000)">
                <path d="M159.364514,87.5590911 L82.920121,2.22581565 C82.0667883,1.28359407 80.8579002,0.732483329 79.5939011,0.750261095 C78.3139019,0.750261095 77.1050139,1.30137183 76.2694589,2.26137118 L1.60284285,87.5946466 C0.749510091,88.5742015 0.376177011,89.8542007 0.536176903,91.1146443 C0.71395456,92.3768656 1.40728742,93.5146426 2.47395337,94.2257533 L77.1405694,144.003497 C77.8872356,144.501275 78.7583461,144.750163 79.6116788,144.750163 C80.4472338,144.750163 81.3023444,144.519052 82.0312327,144.021275 L158.475625,94.243531 C159.576069,93.5501982 160.288957,92.3946434 160.464957,91.1146443 C160.624957,89.8168674 160.233846,88.5368682 159.364514,87.5590911 Z M77.8339023,133.781282 L11.6295027,89.6390897 L77.8339023,13.9769188 L77.8339023,133.781282 Z M81.3894554,133.852393 L81.3894554,13.8346967 L149.28452,89.6390897 L81.3894554,133.852393 Z" id="Shape"></path>
            </g>
        </g>
    </g>
</svg>
